<svg xmlns="http://www.w3.org/2000/svg" viewBox="0 0 1080 1920" width="100%" height="100%">
  <defs>
    <linearGradient id="bgGrad" x1="0%" y1="0%" x2="100%" y2="100%">
      <stop offset="0%" stop-color="#f8fafc" />
      <stop offset="50%" stop-color="#eef2ff" />
      <stop offset="100%" stop-color="#fef9c3" />
    </linearGradient>
    <linearGradient id="boltGrad" x1="0%" y1="0%" x2="0%" y2="100%">
      <stop offset="0%" stop-color="#f59e0b" />
      <stop offset="100%" stop-color="#dc2626" />
    </linearGradient>
    <linearGradient id="circuitGrad" x1="0%" y1="0%" x2="100%" y2="100%">
      <stop offset="0%" stop-color="#3b82f6" />
      <stop offset="100%" stop-color="#8b5cf6" />
    </linearGradient>
    <filter id="neonGlow" x="-50%" y="-50%" width="200%" height="200%">
      <feGaussianBlur stdDeviation="6" result="blur" />
      <feMerge>
        <feMergeNode in="blur" />
        <feMergeNode in="blur" />
        <feMergeNode in="SourceGraphic" />
      </feMerge>
    </filter>
    <filter id="softShadow" x="-20%" y="-20%" width="140%" height="140%">
      <feDropShadow dx="0" dy="12" stdDeviation="20" flood-color="#000" flood-opacity="0.12" />
    </filter>
    <pattern id="pcb" width="120" height="120" patternUnits="userSpaceOnUse">
      <path d="M60 0 L60 30 M30 60 L90 60 M0 60 L0 120 M120 60 L120 0" stroke="#cbd5e1" stroke-width="1.5" fill="none" stroke-opacity="0.4" />
      <circle cx="60" cy="60" r="4" fill="#94a3b8" fill-opacity="0.3" />
      <circle cx="60" cy="0" r="3" fill="#94a3b8" fill-opacity="0.3" />
      <circle cx="0" cy="60" r="3" fill="#94a3b8" fill-opacity="0.3" />
      <circle cx="120" cy="60" r="3" fill="#94a3b8" fill-opacity="0.3" />
    </pattern>
  </defs>
  <rect width="1080" height="1920" fill="url(#bgGrad)" />
  <rect width="1080" height="1920" fill="url(#pcb)" />
  <g opacity="0.3">
    <path d="M0,1600 Q200,1500 400,1620 T800,1580 T1080,1650 L1080,1920 L0,1920 Z" fill="url(#boltGrad)" />
    <path d="M0,1720 Q250,1650 500,1750 T1000,1700 L1080,1740 L1080,1920 L0,1920 Z" fill="url(#circuitGrad)" opacity="0.5" />
  </g>
  <g transform="translate(100, 400)">
    <path d="M0,0 L-30,80 L10,70 L-20,160 L40,80 L-10,70 L20,0 Z" fill="url(#boltGrad)" filter="url(#neonGlow)" opacity="0.8" />
  </g>
  <g transform="translate(950, 600) scale(-1,1)">
    <path d="M0,0 L-30,80 L10,70 L-20,160 L40,80 L-10,70 L20,0 Z" fill="url(#boltGrad)" filter="url(#neonGlow)" opacity="0.6" />
  </g>
  <g transform="translate(800, 200)" opacity="0.7">
    <path d="M0,0 Q30,-40 60,-10 T120,-20 T180,10" stroke="#f97316" stroke-width="6" fill="none" stroke-linecap="round" stroke-dasharray="8 6" />
    <rect x="180" y="0" width="30" height="20" rx="4" fill="#475569" stroke="#1e293b" stroke-width="2" />
    <line x1="185" y1="5" x2="205" y2="5" stroke="#94a3b8" stroke-width="2" />
    <line x1="185" y1="10" x2="205" y2="10" stroke="#94a3b8" stroke-width="2" />
    <line x1="185" y1="15" x2="205" y2="15" stroke="#94a3b8" stroke-width="2" />
  </g>
  <g transform="translate(180, 1300)">
    <rect x="-40" y="-40" width="80" height="80" rx="8" fill="#1e293b" stroke="#38bdf8" stroke-width="3" filter="url(#neonGlow)" />
    <g stroke="#475569" stroke-width="4">
      <line x1="-40" y1="-20" x2="-60" y2="-20" />
      <line x1="-40" y1="0" x2="-60" y2="0" />
      <line x1="-40" y1="20" x2="-60" y2="20" />
      <line x1="40" y1="-20" x2="60" y2="-20" />
      <line x1="40" y1="0" x2="60" y2="0" />
      <line x1="40" y1="20" x2="60" y2="20" />
      <line x1="-20" y1="-40" x2="-20" y2="-60" />
      <line x1="0" y1="-40" x2="0" y2="-60" />
      <line x1="20" y1="-40" x2="20" y2="-60" />
      <line x1="-20" y1="40" x2="-20" y2="60" />
      <line x1="0" y1="40" x2="0" y2="60" />
      <line x1="20" y1="40" x2="20" y2="60" />
    </g>
    <text x="0" y="8" font-family="monospace" font-size="16" fill="#f8fafc" text-anchor="middle">⚡</text>
  </g>
  <g transform="translate(540, 850)" filter="url(#softShadow)">
    <circle cx="0" cy="0" r="320" fill="none" stroke="#94a3b8" stroke-width="2" stroke-dasharray="15 15" opacity="0.5" />
    <circle cx="0" cy="0" r="290" fill="none" stroke="#f97316" stroke-width="1.5" stroke-dasharray="5 20" opacity="0.6" />
    <circle cx="0" cy="0" r="260" fill="none" stroke="#3b82f6" stroke-width="3" stroke-dasharray="4 12" opacity="0.4" />
    <rect x="-180" y="-240" width="360" height="480" rx="28" fill="#ffffff" stroke="#e2e8f0" stroke-width="2" />
    <rect x="-180" y="-240" width="360" height="100" rx="28" fill="#0f172a" />
    <rect x="-180" y="-140" width="360" height="100" fill="#0f172a" />
    <text x="0" y="-195" font-family="'Segoe UI', Arial, sans-serif" font-size="36" font-weight="900" fill="#facc15" text-anchor="middle" letter-spacing="6" filter="url(#neonGlow)">YTech</text>
    <text x="0" y="-160" font-family="'Segoe UI', Arial, sans-serif" font-size="14" fill="#94a3b8" text-anchor="middle" letter-spacing="2">Young Innovation</text>
    <text x="-140" y="-110" font-family="monospace" font-size="12" fill="#475569">DEVIS N° ELEC-2025-001</text>
    <g stroke="#334155" stroke-width="3" stroke-linecap="round">
      <line x1="-140" y1="-75" x2="100" y2="-75" />
      <text x="-145" y="-70" font-family="'Segoe UI'" font-size="11" fill="#f97316" stroke="none">⚡</text>
      <line x1="-140" y1="-45" x2="130" y2="-45" />
      <text x="-145" y="-40" font-family="'Segoe UI'" font-size="11" fill="#3b82f6" stroke="none">🖧</text>
      <line x1="-140" y1="-15" x2="80" y2="-15" />
      <text x="-145" y="-10" font-family="'Segoe UI'" font-size="11" fill="#8b5cf6" stroke="none">🔧</text>
      <line x1="-140" y1="15" x2="110" y2="15" />
      <text x="-145" y="20" font-family="'Segoe UI'" font-size="11" fill="#10b981" stroke="none">🛡️</text>
    </g>
    <g transform="translate(0, 100)">
      <rect x="-120" y="-20" width="240" height="40" rx="10" fill="#fef3c7" />
      <text x="-70" y="5" font-family="Arial" font-size="28" font-weight="bold" fill="#d97706">Total :</text>
      <text x="30" y="5" font-family="Arial" font-size="36" font-weight="bold" fill="#d97706">€</text>
    </g>
    <g transform="translate(0, 190)" stroke="#10b981" stroke-width="8" stroke-linecap="round" stroke-linejoin="round" fill="none">
      <polyline points="-50,0 -20,30 50,-40" />
    </g>
  </g>
  <g transform="translate(540, 850)" opacity="0.6">
    <line x1="0" y1="0" x2="420" y2="0" stroke="#facc15" stroke-width="2" stroke-dasharray="10 10" />
    <line x1="0" y1="0" x2="0" y2="-420" stroke="#f97316" stroke-width="2" stroke-dasharray="10 10" />
    <line x1="0" y1="0" x2="-300" y2="300" stroke="#8b5cf6" stroke-width="1.5" stroke-dasharray="6 12" />
  </g>
  <text x="540" y="220" font-family="'Segoe UI', Arial" font-size="56" font-weight="900" fill="#0f172a" text-anchor="middle" filter="url(#neonGlow)">DEVIS EXPRESS</text>
  <text x="540" y="290" font-family="'Segoe UI', Arial" font-size="24" font-weight="500" fill="#475569" text-anchor="middle">Électricité • Informatique • Dépannage 24/7</text>
  <g>
    <g transform="translate(850, 500)" opacity="0.8">
      <circle cx="0" cy="-15" r="12" fill="#fef3c7" stroke="#f59e0b" stroke-width="2" filter="url(#neonGlow)" />
      <rect x="-3" y="-3" width="6" height="12" fill="#475569" />
    </g>
    <g transform="translate(200, 900)">
      <rect x="-12" y="-20" width="24" height="40" rx="4" fill="#e2e8f0" stroke="#475569" stroke-width="2" />
      <circle cx="-4" cy="-5" r="3" fill="#1e293b" />
      <circle cx="4" cy="-5" r="3" fill="#1e293b" />
      <rect x="-2" y="5" width="4" height="8" fill="#1e293b" rx="1" />
    </g>
    <g transform="translate(150, 500) rotate(30)">
      <rect x="-4" y="-30" width="8" height="40" rx="3" fill="#64748b" />
      <circle cx="0" cy="-30" r="10" fill="none" stroke="#64748b" stroke-width="6" />
    </g>
  </g>
  <g>
    <circle cx="300" cy="1100" r="3" fill="#f97316" filter="url(#neonGlow)" />
    <circle cx="800" cy="1400" r="2" fill="#3b82f6" />
    <circle cx="500" cy="1700" r="4" fill="#facc15" filter="url(#neonGlow)" />
  </g>
  <g transform="translate(540, 1750)" opacity="0" filter="url(#neonGlow)">
    <path d="M-100,0 Q-80,-20 -60,-5 Q-40,10 -20,-15 Q0,-40 20,-10 Q40,20 60,-5 Q80,-30 100,0" stroke="url(#circuitGrad)" stroke-width="4" fill="none" stroke-linecap="round" stroke-linejoin="round" />
    <text x="0" y="30" font-family="'Segoe UI'" font-size="14" fill="#334155" text-anchor="middle" letter-spacing="2">YTech - L'innovation au service de vos travaux</text>
  </g>
</svg>
